<?xml version="1.0" standalone="no"?>
<!DOCTYPE svg PUBLIC "-//W3C//DTD SVG 1.1//EN" "http://www.w3.org/Graphics/SVG/1.1/DTD/svg11.dtd" >
<svg xmlns="http://www.w3.org/2000/svg">
<metadata>
Created by FontForge 20120731 at Thu Apr 28 16:46:27 2016
 By admin
</metadata>
<defs>
<font id="iconfont" horiz-adv-x="1024" >
  <font-face 
    font-family="iconfont"
    font-weight="500"
    font-stretch="normal"
    units-per-em="1024"
    panose-1="2 0 6 3 0 0 0 0 0 0"
    ascent="896"
    descent="-128"
    x-height="792"
    bbox="0 -121 1024 831"
    underline-thickness="50"
    underline-position="-100"
    unicode-range="U+0078-E624"
  />
<missing-glyph horiz-adv-x="374" 
d="M34 0v682h272v-682h-272zM68 34h204v614h-204v-614z" />
    <glyph glyph-name=".notdef" horiz-adv-x="374" 
d="M34 0v682h272v-682h-272zM68 34h204v614h-204v-614z" />
    <glyph glyph-name=".null" horiz-adv-x="0" 
 />
    <glyph glyph-name="nonmarkingreturn" horiz-adv-x="341" 
 />
    <glyph glyph-name="x" unicode="x" horiz-adv-x="1001" 
d="M281 543q-27 -1 -53 -1h-83q-18 0 -36.5 -6t-32.5 -18.5t-23 -32t-9 -45.5v-76h912v41q0 16 -0.5 30t-0.5 18q0 13 -5 29t-17 29.5t-31.5 22.5t-49.5 9h-133v-97h-438v97zM955 310v-52q0 -23 0.5 -52t0.5 -58t-10.5 -47.5t-26 -30t-33 -16t-31.5 -4.5q-14 -1 -29.5 -0.5
t-29.5 0.5h-32l-45 128h-439l-44 -128h-29h-34q-20 0 -45 1q-25 0 -41 9.5t-25.5 23t-13.5 29.5t-4 30v167h911zM163 247q-12 0 -21 -8.5t-9 -21.5t9 -21.5t21 -8.5q13 0 22 8.5t9 21.5t-9 21.5t-22 8.5zM316 123q-8 -26 -14 -48q-5 -19 -10.5 -37t-7.5 -25t-3 -15t1 -14.5
t9.5 -10.5t21.5 -4h37h67h81h80h64h36q23 0 34 12t2 38q-5 13 -9.5 30.5t-9.5 34.5q-5 19 -11 39h-368zM336 498v228q0 11 2.5 23t10 21.5t20.5 15.5t34 6h188q31 0 51.5 -14.5t20.5 -52.5v-227h-327z" />
    <glyph glyph-name="uniE600" unicode="&#xe600;" 
d="M742.5 453q-13.5 0 -23.5 -10t-10 -24v-70q0 -14 10 -24t23.5 -10t23 10t9.5 24v70q0 14 -9.5 24t-23 10zM742.5 247q-13.5 0 -23.5 -9.5t-10 -24.5v-70q0 -14 10 -24t23.5 -10t23 10t9.5 24v70q0 15 -9.5 24.5t-23 9.5zM338 657h-53q-13 0 -22.5 -9t-9.5 -22v-73
q0 -13 8.5 -22t19.5 -10h63q12 1 19.5 10t7.5 22v73q0 13 -9.5 22t-23.5 9zM338 452h-53q-13 0 -22.5 -9t-9.5 -22v-73q0 -12 8.5 -21.5t19.5 -10.5h63q12 1 19.5 10t7.5 22v73q0 13 -9.5 22t-23.5 9zM338 250h-53q-13 0 -22.5 -9t-9.5 -22v-74q0 -12 8.5 -21t19.5 -11h63
q12 2 19.5 11t7.5 21v74q0 13 -9.5 22t-23.5 9zM488 657h-54q-13 0 -22 -9t-9 -22v-73q0 -13 8 -22t20 -10h63q12 1 19.5 10t7.5 22v73q0 13 -10 22t-23 9zM488 452h-54q-13 0 -22 -9t-9 -22v-73q0 -12 8 -21.5t20 -10.5h63q12 1 19.5 10t7.5 22v73q0 13 -10 22t-23 9z
M487 250h-54q-13 0 -22 -9t-9 -22v-74q0 -12 8 -21t20 -11h63q12 2 19.5 11t7.5 21v74q0 13 -10 22t-23 9zM902 -25v-1h60q13 0 23 10t10 24q0 13 -8 22.5t-19 11.5h-5q-25 3 -42 20t-19 42v415q0 29 -21.5 48.5t-50.5 19.5h-121q-25 2 -42 21.5t-18 46.5v70
q0 29 -21.5 48.5t-50.5 19.5h-382q-29 0 -49.5 -19.5t-20.5 -48.5v-621q-2 -25 -18.5 -42t-41.5 -19q0 -1 -1 -1h-5q-11 -2 -19 -11.5t-8 -22.5q0 -14 10 -23.5t23 -9.5h122h715zM582 90q0 -18 -11 -31.5t-29 -15.5h-308q-18 2 -30 15.5t-12 31.5v589q0 20 13.5 33t33.5 13
h295q19 0 33.5 -13.5t14.5 -32.5v-589zM795 43h-105q-16 1 -27.5 12.5t-13.5 28.5v395q2 17 15 28t31 11h92q19 0 33.5 -13t14.5 -33v-382q0 -18 -11 -31.5t-29 -15.5z" />
    <glyph glyph-name="uniE601" unicode="&#xe601;" 
d="M513 803l-420 -420v-52h21l399 398l398 -398h22v52zM812.5 309q-49.5 0 -84.5 -35.5t-35 -84.5q0 -43 26.5 -75.5t66.5 -41.5v-109h53v109q41 9 67.5 41.5t26.5 75.5q0 49 -35.5 84.5t-85 35.5zM812.5 122q-27.5 0 -47.5 19.5t-20 47.5t20 47.5t47.5 19.5t47.5 -19.5
t20 -47.5t-20 -47.5t-47.5 -19.5zM640 189q0 69 48 119.5t117 52.5l-292 293l-315 -314v-377h235v264h159v-264h141v72q-42 22 -67.5 63.5t-25.5 90.5z" />
    <glyph glyph-name="uniE602" unicode="&#xe602;" 
d="M512.5 831q-104.5 0 -178.5 -74.5t-74 -178.5q0 -75 40 -136.5t105 -91.5q-120 -36 -197.5 -137t-77.5 -230q0 -8 6 -14t14.5 -6t14 6t5.5 14q0 93 46 172t125 124.5t171 45.5q105 0 179 74t74 178.5t-74 179t-178.5 74.5zM512 365q-88 0 -150 62.5t-62 150.5t62 150.5
t150 62.5t150.5 -62.5t62.5 -150.5t-62.5 -150.5t-150.5 -62.5zM744 287q-7 5 -15 4t-13 -7.5t-4 -15t8 -13.5q64 -49 99 -120t35 -152q0 -8 6 -14t14.5 -6t14 6t5.5 14q0 90 -39 169.5t-111 134.5z" />
    <glyph glyph-name="uniE603" unicode="&#xe603;" 
d="M890 474h-74q-1 2 -11.5 28.5t-17.5 39.5l52 51q12 12 12 29.5t-12 29.5l-60 59q-12 12 -29.5 12t-29.5 -12l-50 -52q-13 7 -39 17.5t-29 11.5v74q0 17 -15 29.5t-33 12.5h-84q-18 0 -33 -12.5t-15 -29.5v-74q-2 -1 -28.5 -11.5t-39.5 -17.5l-51 52q-12 12 -29.5 12
t-29.5 -12l-59 -60q-12 -12 -12 -29.5t12 -29.5l52 -50q-7 -13 -17.5 -39t-11.5 -29h-74q-17 0 -29.5 -15t-12.5 -33v-84q0 -18 12.5 -33t29.5 -15h74q1 -2 11.5 -28.5t17.5 -39.5l-52 -51q-12 -12 -12 -29.5t12 -29.5l60 -59q12 -12 29.5 -12t29.5 12l50 52q13 -7 39 -17.5
t29 -11.5v-74q0 -17 15 -29.5t33 -12.5h84q18 0 33 12.5t15 29.5v74q2 1 28.5 11.5t39.5 17.5l51 -52q12 -12 29.5 -12t29.5 12l59 60q12 12 12 29.5t-12 29.5l-52 50q7 13 17.5 39t11.5 29h74q17 0 29.5 15t12.5 33v84q0 18 -12.5 33t-29.5 15zM512 195q-78 0 -133.5 55.5
t-55.5 133.5t55.5 133.5t133.5 55.5t133.5 -55.5t55.5 -133.5t-55.5 -133.5t-133.5 -55.5z" />
    <glyph glyph-name="uniE604" unicode="&#xe604;" 
d="M113 530q1 4 4.5 12.5t16 33t28.5 48t44 53t60 53t79 43.5t99 29q-39 -56 -76 -146q-1 -2 -8.5 -0.5t-21 -2t-26 -9.5t-24.5 -21.5t-18 -38.5q-13 -2 -29.5 -6t-56.5 -18t-71 -30zM272 538l-32 -8q-20 -5 -67.5 -24t-78.5 -42q-1 -6 -3 -17.5t-3.5 -45.5t2 -67.5
t17.5 -79t38 -85.5q11 -2 27.5 -4.5t66.5 -7.5t87 1q0 7 1 17t10 33t25 35q-5 13 -12 35.5t-16.5 85t-4.5 116.5q-10 0 -30 15q-21 17 -27 43zM182 116q4 -7 13.5 -19t43.5 -41.5t74.5 -50.5t108 -35t141.5 -7q-94 90 -114 119q-3 -1 -8 -2t-19.5 -1.5t-26.5 2t-25.5 11.5
t-20.5 24q-99 -14 -167 0zM486 109q3 1 6 3.5t10 16t10 33.5q6 2 16.5 6t41 20.5t58.5 36.5t63 54.5t60 73.5q29 -2 49 14q8 -8 20.5 -21t40 -51.5t41.5 -76.5q-2 -7 -8 -20t-28 -48t-50.5 -64.5t-78.5 -61.5t-108 -49q-1 0 -25 17.5t-60 51t-58 65.5zM865 614q3 -2 6.5 -7
t14 -22t19 -36t17 -49t12.5 -61.5t2 -73t-11 -84.5q-60 97 -90 119q3 6 6.5 15.5t3.5 33.5t-14 41q29 55 34 124zM412 642q31 -26 32 -49q6 0 15.5 -1t39 -6.5t58 -13.5t66.5 -24t71 -36q2 2 5.5 4.5t15 8t23 8.5t27.5 1t30 -11q28 51 33 144q-4 6 -12 15t-37.5 32.5
t-63.5 42t-89.5 34t-115.5 17.5l-1 -1q-84 -116 -97 -165zM375 477q2 0 6.5 0.5t15.5 3.5t20.5 9.5t18.5 21t11 35.5q14 -1 37.5 -4.5t82 -21.5t102.5 -44q-1 -3 -2.5 -8t-2 -20t2 -28t12.5 -28.5t27 -25.5q-3 -4 -8 -10.5t-23 -26t-39 -38t-56.5 -42t-74.5 -42.5
q-1 3 -3.5 7t-11 14.5t-19 18t-28.5 12t-38 0.5q-4 0 -13 42q-17 70 -17 175z" />
    <glyph glyph-name="uniE605" unicode="&#xe605;" 
d="M559 711v95h-94v-95h-375v-95h48v-475h295l-185 -142l32 -37l227 185l226 -185l32 37l-179 148h300v474h48v90h-375zM839 194h-654v422h654v-422zM322 289v142h143q0 51 -37.5 86.5t-89.5 35.5q-51 0 -89 -37.5t-38 -89.5q5 -56 34 -96.5t77 -40.5zM370 242q54 0 98 45
t44 97h-142v-142zM744 526h-137v-47h142v47h-5zM744 431h-137v-47h142v47h-5zM744 337h-137v-48h142v48h-5z" />
    <glyph glyph-name="uniE606" unicode="&#xe606;" 
d="M624 75q0 -47 -32.5 -80t-79.5 -33t-79.5 33t-32.5 80h224zM587 731q0 31 -22 53t-53 22t-53 -22t-22 -53q0 -6 1 -13q-80 -27 -134 -104.5t-54 -173.5v-103q-1 -2 -1 -5v-14q0 -10 -0.5 -19.5t-2 -23t-3 -25t-4.5 -23.5t-6.5 -20.5t-8.5 -14t-11 -5.5q-16 0 -27.5 -11
t-11.5 -26.5t11 -26.5t27 -11h600q16 0 26.5 11t10.5 26.5t-10.5 26.5t-26.5 11q-17 0 -26 37.5t-10 74.5l-2 37v104q0 98 -52.5 174.5t-135.5 104.5q1 6 1 12z" />
    <glyph glyph-name="uniE607" unicode="&#xe607;" 
d="M335.5 599q14.5 0 25 10t10.5 25v142q0 15 -10.5 25t-25 10t-25 -10t-10.5 -25v-142q0 -15 10.5 -25t25 -10zM512.5 599q14.5 0 25 10t10.5 25v142q0 15 -10.5 25t-25 10t-25 -10t-10.5 -25v-142q0 -15 10.5 -25t25 -10zM406 743h36v-71h-36v71zM584 743h35v-71h-35v71z
M938 65v576q0 44 -31 75t-75 31h-71v-71h71q14 0 24.5 -10t10.5 -25v-576q0 -15 -10.5 -25.5t-24.5 -10.5h-638q-15 0 -25.5 10.5t-10.5 25.5v576q0 14 10.5 24.5t25.5 10.5h70v71h-70q-44 0 -75.5 -31t-31.5 -75v-576q0 -44 31 -75t76 -31h638q42 0 72.5 29t33.5 72v1v3v1
v0zM690 599q15 0 25 10t10 25v142q0 15 -10 25t-25 10t-25.5 -10t-10.5 -25v-142q0 -15 10.5 -25t25.5 -10zM299 456h426q14 0 24.5 10.5t10.5 25t-10.5 25t-24.5 10.5h-426q-14 0 -24.5 -10.5t-10.5 -25t10.5 -25t24.5 -10.5zM725 352h-426q-14 0 -24.5 -10.5t-10.5 -25
t10.5 -25t24.5 -10.5h426q14 0 24.5 10.5t10.5 25t-10.5 25t-24.5 10.5zM725 170h-426q-14 0 -24.5 -10t-10.5 -25t10.5 -25.5t24.5 -10.5h426q14 0 24.5 10.5t10.5 25.5t-10.5 25t-24.5 10z" />
    <glyph glyph-name="uniE608" unicode="&#xe608;" 
d="M186 578h648q25 0 42.5 17.5t17.5 42.5t-17.5 43t-42.5 18h-648q-25 0 -43 -18t-18 -43t18 -42.5t43 -17.5zM834 456h-648q-25 0 -43 -18t-18 -43t18 -42.5t43 -17.5h648q25 0 42.5 17.5t17.5 42.5t-17.5 43t-42.5 18zM834 213h-648q-25 0 -43 -18t-18 -43t18 -42.5
t43 -17.5h648q25 0 42.5 17.5t17.5 42.5t-17.5 43t-42.5 18z" />
    <glyph glyph-name="uniE609" unicode="&#xe609;" 
d="M875 142q-25 19 -79 48t-95.5 48.5t-41.5 18.5l-104 -191l-15 46l28 57l-57 58l-57 -58l29 -57l-19 -47l-101 192q-160 -72 -215 -115q-16 -12 -30 -34.5t-22.5 -45.5t-15 -45t-9.5 -35l-3 -14h888q0 20 -17 72q-25 71 -64 102zM517 274q46 0 88 28.5t69.5 70t43.5 87
t16 81.5q0 21 -0.5 33.5t-2.5 36.5t-5.5 39t-11 37t-18 36t-27 30t-38 25.5t-50.5 15.5t-64.5 6t-64.5 -6t-50.5 -15.5t-38 -25.5t-27 -30t-18 -36t-11 -37t-5.5 -39t-2.5 -36.5t-0.5 -33.5q0 -36 16 -81.5t43.5 -87.5t69.5 -70t89 -28zM517 274z" />
    <glyph glyph-name="uniE60A" unicode="&#xe60a;" 
d="M638 759q0 20 -55 35q-92 26 -173 -2q-125 -43 -115 -199q3 -37 14 -79q-20 -6 -24 -29t7.5 -46.5t32.5 -31.5q2 -1 5 -15.5t15 -40.5t36 -50q9 -9 9 -30t-8 -43.5t-27.5 -42t-45.5 -23.5t-52 -13t-55.5 -25.5t-51 -38t-34 -53.5t-8.5 -70h800q1 3 2.5 8.5t1.5 21.5
t-3 31.5t-14.5 36t-29.5 38t-51.5 35t-78.5 29.5q-33 8 -55 25t-30.5 36t-10.5 37.5t0.5 31.5t6.5 17q31 31 49 90q18 10 31 31t12.5 45t-19.5 39q61 240 -81 245z" />
    <glyph glyph-name="uniE60B" unicode="&#xe60b;" 
d="M510 707q-101 0 -172 -70t-71 -168.5t71 -168.5t172 -70t172 70t71 168.5t-71 168.5t-172 70zM229 377v220q-4 0 -9 -1q38 83 116.5 133.5t174 50.5t173.5 -50.5t116 -133.5q-4 1 -9 1v-220q47 0 79.5 32t32.5 78q0 30 -15.5 55.5t-41.5 40.5q-37 103 -129 168.5
t-207 65.5t-207 -65.5t-129 -168.5q-26 -15 -41.5 -40.5t-15.5 -55.5q0 -46 33 -78t79 -32zM753 251q-103 -94 -243 -94t-242 94q-88 -45 -138.5 -121t-50.5 -177h865q0 101 -51 177t-140 121zM753 251z" />
    <glyph glyph-name="uniE60C" unicode="&#xe60c;" 
d="M530 -21q0 -6 -4 -10.5t-10 -4.5h-8q-6 0 -10 4.5t-4 10.5v810q0 6 4 10.5t10 4.5h8q6 0 10 -4.5t4 -10.5v-810z" />
    <glyph glyph-name="uniE60D" unicode="&#xe60d;" horiz-adv-x="1025" 
d="M928 800h-832q-40 0 -68 -28t-28 -68v-640q0 -40 28 -68t68 -28h832q40 0 68 28t28 68v640q0 40 -28 68t-68 28zM944 162l-201 268q-1 2 -4 5.5t-16.5 9.5t-32.5 6q-20 0 -35 -5t-20 -10l-5 -6l-176 -271q-10 -18 -33 -18q-11 0 -20 4.5t-13 8.5l-3 5l-93 106
q-2 3 -7 8.5t-19.5 14t-27.5 8.5q-9 0 -18 -3.5t-15.5 -8.5t-12.5 -10l-8 -9l-2 -4l-102 -126v552q0 13 9.5 22.5t22.5 9.5h800q13 0 22.5 -9.5t9.5 -22.5v-525zM464 512q0 -47 -33 -80t-80 -33t-80.5 33t-33.5 80t33.5 80t80.5 33t80 -33t33 -80z" />
    <glyph glyph-name="uniE60E" unicode="&#xe60e;" 
d="M289 401l396 396q6 7 16 7t16.5 -7t6.5 -16.5t-6 -16.5l-380 -380l380 -380q6 -7 6 -16.5t-6.5 -16.5t-16.5 -7t-16 7l-396 396q-7 7 -7 17t7 17z" />
    <glyph glyph-name="uniE60F" unicode="&#xe60f;" 
d="M495 184l-396 396q-7 6 -7 16t7 16.5t16.5 6.5t16.5 -6l380 -380l380 380q7 6 16.5 6t16.5 -6.5t7 -16.5t-7 -16l-396 -396q-7 -7 -17 -7t-17 7z" />
    <glyph glyph-name="uniE610" unicode="&#xe610;" 
d="M716 365l-395 -396q-7 -7 -16.5 -7t-16.5 7t-7 16.5t7 16.5l379 380l-379 379q-7 7 -7 16.5t7 16.5t16.5 7t16.5 -7l395 -395q7 -7 7 -17q0 -11 -7 -17z" />
    <glyph glyph-name="uniE611" unicode="&#xe611;" 
d="M491 664l-480 -480q-8 -9 -8 -20.5t8 -20t20 -8.5t20 9l461 460l461 -460q8 -9 20 -9t20 8.5t8 20t-8 20.5l-480 480q-9 8 -21 8t-21 -8z" />
    <glyph glyph-name="uniE612" unicode="&#xe612;" 
d="M476 40q-103 0 -190.5 51t-138.5 138t-51 190t51 190.5t138.5 138.5t190.5 51t190.5 -51t138 -138.5t50.5 -190.5t-50.5 -190t-138 -138t-190.5 -51zM475.5 761q-92.5 0 -171 -46t-124.5 -124.5t-46 -171t46 -171t124.5 -124.5t171 -46t171 46t124.5 124.5t46 171
t-46 171t-124.5 124.5t-171 46zM910 -31q-8 0 -13 5l-182 170q-6 6 -6 14t5.5 13.5t13.5 6t13 -5.5l182 -170q6 -5 6 -13t-5 -14q-6 -6 -14 -6z" />
    <glyph glyph-name="uniE613" unicode="&#xe613;" horiz-adv-x="1028" 
d="M515.5 -38q-114.5 0 -212 56.5t-154 154t-56.5 211.5t56.5 211.5t154 154t212 56.5t211.5 -56.5t153.5 -154t56.5 -211.5t-56.5 -211.5t-153.5 -154t-211.5 -56.5zM515.5 769q-104.5 0 -193.5 -51.5t-140.5 -140.5t-51.5 -193t51.5 -193t140.5 -140.5t193.5 -51.5
t193 51.5t140 140.5t51.5 193t-51.5 193t-140 140.5t-193 51.5zM708.5 368q-5.5 -5 -13.5 -5h-359q-8 0 -13 5t-5 12.5t5 13t13 5.5h359q8 0 13.5 -5.5t5.5 -13t-5.5 -12.5zM528 187q-5 -5 -12.5 -5t-13 5t-5.5 13v368q0 8 5.5 13t13 5t13 -5t4.5 -13v-368q0 -8 -5 -13z" />
    <glyph glyph-name="uniE614" unicode="&#xe614;" horiz-adv-x="1028" 
d="M515.5 -38q-114.5 0 -212 56.5t-154 154t-56.5 211.5t56.5 211.5t154 154t212 56.5t211.5 -56.5t153.5 -154t56.5 -211.5t-56.5 -211.5t-153.5 -154t-211.5 -56.5zM515.5 769q-104.5 0 -193.5 -51.5t-140.5 -140.5t-51.5 -193t51.5 -193t140.5 -140.5t193.5 -51.5
t193 51.5t140 140.5t51.5 193t-51.5 193t-140 140.5t-193 51.5zM708.5 368q-5.5 -5 -13.5 -5h-359q-8 0 -13 5t-5 12.5t5 13t13 5.5h359q8 0 13.5 -5.5t5.5 -13t-5.5 -12.5z" />
    <glyph glyph-name="uniE615" unicode="&#xe615;" 
d="M896 683q18 0 30.5 -12.5t12.5 -30.5t-13 -30l-512 -512q-12 -13 -30 -13t-30 13l-256 256q-13 12 -13 30t12.5 30.5t30.5 12.5t30 -13l226 -226l482 482q12 13 30 13z" />
    <glyph glyph-name="uniE616" unicode="&#xe616;" 
d="M831 748q19 0 32 -13t13 -32q0 -20 -13 -33l-287 -286l287 -286q13 -13 13 -33q0 -19 -13 -32t-32 -13q-20 0 -33 13l-286 287l-286 -287q-13 -13 -33 -13q-19 0 -32 13t-13 32q0 20 13 33l287 286l-287 286q-13 13 -13 33q0 19 13 32t32 13q20 0 33 -13l286 -287
l286 287q13 13 33 13z" />
    <glyph glyph-name="uniE617" unicode="&#xe617;" 
d="M128 427h768q18 0 30.5 -12.5t12.5 -30.5t-12.5 -30.5t-30.5 -12.5h-768q-18 0 -30.5 12.5t-12.5 30.5t12.5 30.5t30.5 12.5z" />
    <glyph glyph-name="uniE618" unicode="&#xe618;" 
d="M512 747q18 0 30.5 -12.5t12.5 -30.5v-341h341q18 0 30.5 -12.5t12.5 -30.5t-12.5 -30.5t-30.5 -12.5h-341v-341q0 -18 -12.5 -30.5t-30.5 -12.5t-30.5 12.5t-12.5 30.5v341h-341q-18 0 -30.5 12.5t-12.5 30.5t12.5 30.5t30.5 12.5h341v341q0 18 12.5 30.5t30.5 12.5z
" />
    <glyph glyph-name="uniE619" unicode="&#xe619;" 
d="M512 797q16 0 26.5 -11t10.5 -27v-434l124 123q11 11 26 11q17 0 27.5 -10.5t10.5 -26.5t-11 -27l-187 -188q-11 -10 -27 -10t-27 10l-187 188q-11 11 -11 27q0 15 11 26t26 11q16 0 27 -11l123 -123v434q0 16 11 27t27 11zM887 272q16 0 26.5 -11t10.5 -27v-150
q0 -47 -32 -79q-33 -33 -79 -33h-601q-46 0 -80 32q-33 34 -33 80v150q0 16 11 27t27 10.5t26.5 -11t10.5 -26.5v-150q0 -16 11 -26.5t27 -10.5h601q15 0 25.5 10.5t10.5 26.5v150q0 16 11 27t27 11z" />
    <glyph glyph-name="uniE61A" unicode="&#xe61a;" 
d="M512 795q16 0 27 -11l187 -188q11 -10 11 -26t-10.5 -27t-26.5 -11t-27 11l-123 124v-435q0 -15 -11 -26t-27 -11t-26.5 11t-10.5 26v435l-124 -124q-11 -11 -26 -11q-16 0 -27 11t-11 27q0 15 11 26l187 188q11 11 27 11zM887 270q16 0 26.5 -11t10.5 -27v-150
q0 -47 -32 -79q-33 -33 -79 -33h-601q-46 0 -80 33q-33 33 -33 79v150q0 16 11 27t27 11t26.5 -11t10.5 -27v-150q0 -15 11 -26t27 -11h601q15 0 25.5 11t10.5 26v150q0 16 11 27t27 11z" />
    <glyph glyph-name="uniE61B" unicode="&#xe61b;" 
d="M785 -37q-6 0 -11 3l-262 142l-261 -142q-14 -8 -26.5 1t-9.5 25l47 285l-189 190q-11 10 -6.5 24.5t19.5 17.5l286 47l118 237q7 14 22.5 14t21.5 -14l119 -237l285 -47q15 -3 20 -17.5t-6 -24.5l-190 -190l48 -285q2 -16 -10 -25q-7 -4 -15 -4zM512.5 161
q6.5 0 11.5 -3l228 -124l-41 247q-2 13 7 22l165 165l-251 41q-12 2 -18 14l-102 204l-102 -204q-5 -12 -18 -14l-250 -41l164 -165q9 -9 7 -22l-41 -247l228 124q6 3 12.5 3z" />
    <glyph glyph-name="uniE61C" unicode="&#xe61c;" 
d="M560 799q-21 9 -44.5 6t-41.5 -18l-229 -212h-109q-30 0 -50.5 -21t-20.5 -51v-239q0 -30 20.5 -50.5t50.5 -20.5h109l230 -213q22 -18 51 -18q17 0 33 7q44 19 49 67v8v681v2q-1 24 -13.5 43t-34.5 29zM564 56v-5q-3 -26 -27 -36q-24 -11 -45 6l-225 209q-4 3 -10 4h-4
h-110q-14 0 -24 10t-10 24v231q0 14 10 24t24 10h109h1q7 0 13 4l226 210q21 17 46 6t26 -38v-2v-657zM911 589q-42 83 -115 144q-6 5 -13.5 4t-12.5 -7q-10 -14 3 -25q72 -60 111 -143t39 -177q0 -93 -38.5 -176t-110.5 -143q-13 -11 -2 -24q4 -7 12 -7.5t14 4.5
q71 60 113 143q48 96 48 203q0 108 -48 204zM693 580q-6 5 -14 4t-12 -8q-9 -13 4 -24q38 -30 59.5 -74.5t21.5 -93.5t-21 -93t-59 -74q-12 -11 -3 -24q5 -7 12.5 -8t13.5 4q44 36 68.5 87t24.5 108t-25 109t-70 87z" />
    <glyph glyph-name="uniE61D" unicode="&#xe61d;" 
d="M748 -121h-472q-44 0 -74.5 30.5t-30.5 74.5v630q0 43 30.5 74t74.5 31h315q19 0 28.5 -0.5t16.5 -0.5h7v1l210 -210v-53v-472q0 -44 -30.5 -74.5t-74.5 -30.5zM643 666v-105q0 -22 15.5 -37t37.5 -15h105zM801 456h-105q-44 0 -74.5 31t-30.5 74l-1 105h-314
q-22 0 -37.5 -15.5t-15.5 -36.5v-630q0 -22 15.5 -37.5t37.5 -15.5h472q22 0 37.5 15.5t15.5 37.5v472zM670 89h-316q-10 0 -18 7.5t-8 18.5t8 18.5t18 7.5h316q10 0 18 -7.5t8 -18.5t-8 -18.5t-18 -7.5zM670 246h-316q-10 0 -18 7.5t-8 18.5t8 19t18 8h316q10 0 18 -8
t8 -19t-8 -18.5t-18 -7.5z" />
    <glyph glyph-name="uniE61E" unicode="&#xe61e;" 
d="M651 96q0 8 -5 14t-12 6h-244q-7 0 -12 -6t-5 -14v-78h-174v-59h626v59h-174v78zM903 809h-782q-25 0 -42 -17t-17 -42v-548q0 -24 17 -41t42 -17h782q25 0 42 17t17 41v548q0 25 -17 42t-42 17v0zM903 222q0 -8 -5.5 -13.5t-13.5 -5.5h-744q-8 0 -13.5 5.5t-5.5 13.5
v509q0 8 5.5 13.5t13.5 5.5h744q8 0 13.5 -5.5t5.5 -13.5v-509zM703 260h106v308h-106v-308zM534 260h105v403h-105v-403zM216 260h106v118h-106v-118zM364 260h106v213h-106v-213z" />
    <glyph glyph-name="uniE61F" unicode="&#xe61f;" 
d="M90 790zM688 26q-31 0 -103.5 -25t-101.5 -25q-32 0 -104.5 25t-99.5 25q-15 0 -33.5 -4.5t-30 -9t-29.5 -13.5q-11 -4 -15.5 -6.5t-12.5 -4.5t-11 -2t-6 2t-3.5 7t1 13.5t5.5 20.5l9 27q5 15 10 33q12 34 24 67q11 32 20 61q9 30 15 48l7 17h612q31 -170 44 -257
q1 -12 1 -20v-7q0 -3 -0.5 -5.5t-2.5 -4.5t-3 -2q-5 -2 -8 -3q-2 -1 -5 -0.5t-7 2t-7 2.5t-7 2q-5 2 -18 6q-23 10 -39 15q-5 2 -11.5 3.5t-14.5 3t-18 4.5q-4 1 -8.5 1t-8.5 1t-8 1l-8 2h-8h-8q-7 1 -8 1v-1zM791 332h-512q-20 0 -35 15.5t-15 36.5q21 29 68 102
q39 52 85 52h76l25 204l12 15q8 8 28 22t37 14t37 -12q5 -4 9 -7t7.5 -6.5t7 -6t5.5 -6.5l11 -13l-25 -204h75q21 0 45.5 -14.5t41.5 -40.5q48 -73 67 -99q0 -23 -15 -37.5t-35 -14.5z" />
    <glyph glyph-name="uniE620" unicode="&#xe620;" 
d="M68 772v-776h888v776h-888zM401 273v166h222v-166h-222zM623 218v-167h-222v167h222zM623 661v-166h-222v166h222zM346 661v-166h-222v166h222zM124 439h222v-166h-222v166zM678 439h222v-166h-222v166zM678 495v166h222v-166h-222zM124 218h222v-167h-222v167zM678 51
v167h222v-167h-222z" />
    <glyph glyph-name="uniE621" unicode="&#xe621;" 
d="M329 34h-32q-38 0 -57 15t-20 41.5t7 60.5l52 196q10 48 42 77l3 3l5 1l113 29l22 -17l65 -138h-177l-23 -23v-245zM363 266v-231h371v231h-371zM425 582q-4 33 -2.5 57t11.5 57q26 -13 65 -10t67 14q11 -17 31 -22.5t41 1.5q5 -28 6 -43.5t-1 -55.5q31 26 36 49
q3 18 -2 67.5t-13 60.5q-22 55 -104 44q-44 16 -86.5 4.5t-64.5 -36.5q-10 -13 -17 -79.5t3 -80.5q7 -9 14.5 -15.5t11.5 -9.5zM315 0h466l-28 -40h-415zM806 347l51 -196q8 -34 7.5 -60.5t-19.5 -41.5t-57 -15h-18v243l-28 25h-181l60 138l22 17l124 -30l3 -5
q25 -33 35 -76z" />
    <glyph glyph-name="uniE622" unicode="&#xe622;" 
d="M863 304v-292q0 -16 -11.5 -27.5t-27.5 -11.5h-234v234h-156v-234h-234q-16 0 -27.5 11.5t-11.5 27.5v292q0 1 3 2t3 2l350 289l351 -289q1 -1 1 -4h-6zM999 346l-38 -45q-5 -5 -13 -7h-1q-8 0 -13 5l-422 351l-422 -351q-7 -5 -14 -5q-8 2 -13 7l-38 45q-5 6 -4.5 14.5
t6.5 13.5l439 365q19 16 46 16t46 -16l149 -125v119q0 9 5.5 14.5t14.5 5.5h117q8 0 13.5 -5.5t5.5 -14.5v-248l134 -111q6 -5 6.5 -13.5t-4.5 -14.5z" />
    <glyph glyph-name="uniE623" unicode="&#xe623;" 
d="M727 383q-30 0 -50.5 22t-18.5 52q1 23 15 41t35 24q27 7 51.5 -7.5t31.5 -42.5q8 -31 -8.5 -57t-46.5 -31q-1 0 -9 -1zM296 383q-30 0 -50.5 23.5t-17.5 53.5q3 23 16.5 40t33.5 22q27 7 50 -5.5t32 -39.5q10 -29 -4.5 -56.5t-43.5 -34.5q-1 -1 -16 -3zM443 454
q0 26 16 45.5t42 24.5q22 3 42 -8.5t30 -32.5q13 -30 -1 -60t-45 -38q-28 -7 -53 9.5t-30 46.5zM513 -38l-158 158h-109q-63 0 -108 45q-46 46 -46 109v380q0 63 46 107q45 44 108 44h532q62 0 107 -44q44 -44 44 -107v-380q0 -64 -44.5 -109t-106.5 -45h-107zM246 766
q-47 0 -81 -33.5t-34 -78.5v-380q0 -47 34.5 -81t80.5 -34h125l142 -141l141 141h124q46 0 78.5 33.5t32.5 81.5v380q0 46 -32 79t-79 33h-532z" />
    <glyph glyph-name="uniE624" unicode="&#xe624;" 
d="M671 510h-340v205h67q9 37 38.5 64t65.5 27t64.5 -27t37.5 -64h67v-206v1v0zM625 556v115h-68v28q0 24 -16 43t-39 19t-41 -19t-18 -43v-28h-69v-115h251zM743 -38h-462q-56 0 -95 39.5t-39 94.5v466q0 55 39 93t95 38h93v-137h253l-2 137h118q56 0 95 -38t39 -93v-466
q0 -55 -39 -94.5t-95 -39.5v0zM281 647q-36 0 -63.5 -25t-27.5 -60v-466q0 -35 27.5 -61.5t63.5 -26.5h462q35 0 61 26.5t26 61.5v466q0 35 -25.5 60t-61.5 25h-72v-137h-340v137h-50v0zM498 126q-8 0 -15 6l-136 109q-8 7 -9 17t5 18t16.5 9t18.5 -5l114 -92l176 278
q6 8 16 10.5t18.5 -3t10.5 -15.5t-3 -19l-191 -301q-6 -9 -17 -11q-2 -1 -4 -1v0z" />
  </font>
</defs>
</svg>
